<svg width="314" height="30" viewBox="0 0 314 30" fill="none" xmlns="http://www.w3.org/2000/svg">
<path d="M11.22 29L0.3 3.12H6.18L15.42 26.04L13.7 26.08L22.5 3.12H28.62L37.42 26.08L35.7 26.04L44.94 3.12H50.7L39.9 29H33.38L24.74 6.56H26.42L17.74 29H11.22ZM71.7787 29V18.08C71.7787 16.9867 71.5921 16.08 71.2188 15.36C70.8454 14.64 70.2454 14.0933 69.4188 13.72C68.6188 13.3467 67.5388 13.16 66.1788 13.16C64.8721 13.16 63.6854 13.4133 62.6188 13.92C61.5521 14.4 60.6854 15.04 60.0188 15.84C59.3521 16.6133 58.9788 17.44 58.8988 18.32L58.8588 16.12C58.9921 15.24 59.2988 14.36 59.7788 13.48C60.2588 12.6 60.8988 11.8 61.6988 11.08C62.4988 10.36 63.4588 9.78667 64.5788 9.36C65.7254 8.90667 67.0054 8.68 68.4188 8.68C69.6454 8.68 70.7788 8.84 71.8188 9.16C72.8588 9.45333 73.7654 9.92 74.5388 10.56C75.3121 11.2 75.9121 12 76.3388 12.96C76.7654 13.8933 76.9788 15 76.9788 16.28V29H71.7787ZM53.9788 29V1.12H59.1788V29H53.9788ZM93.4247 29.48C90.918 29.48 88.7047 29.08 86.7847 28.28C84.8914 27.48 83.4114 26.32 82.3447 24.8C81.278 23.2533 80.7447 21.36 80.7447 19.12C80.7447 16.88 81.278 14.9867 82.3447 13.44C83.4114 11.8667 84.8914 10.68 86.7847 9.88C88.7047 9.08 90.918 8.68 93.4247 8.68C95.9314 8.68 98.118 9.08 99.9847 9.88C101.878 10.68 103.358 11.8667 104.425 13.44C105.491 14.9867 106.025 16.88 106.025 19.12C106.025 21.36 105.491 23.2533 104.425 24.8C103.358 26.32 101.878 27.48 99.9847 28.28C98.118 29.08 95.9314 29.48 93.4247 29.48ZM93.4247 25.48C94.8114 25.48 96.0514 25.24 97.1447 24.76C98.2647 24.2533 99.1447 23.5333 99.7847 22.6C100.425 21.64 100.745 20.48 100.745 19.12C100.745 17.76 100.425 16.6 99.7847 15.64C99.1447 14.6533 98.278 13.9067 97.1847 13.4C96.0914 12.8933 94.838 12.64 93.4247 12.64C92.038 12.64 90.7847 12.8933 89.6647 13.4C88.5447 13.9067 87.6514 14.64 86.9847 15.6C86.3447 16.56 86.0247 17.7333 86.0247 19.12C86.0247 20.48 86.3447 21.64 86.9847 22.6C87.6247 23.5333 88.5047 24.2533 89.6247 24.76C90.7447 25.24 92.0114 25.48 93.4247 25.48ZM110.149 13.44L109.429 12.08C109.829 11.4933 110.215 10.84 110.589 10.12C110.989 9.37333 111.202 8.62667 111.229 7.88L109.029 7.44V2.88H115.149V6.16C115.149 8.02666 114.695 9.54667 113.789 10.72C112.909 11.8667 111.695 12.7733 110.149 13.44ZM118.327 22.4H123.127C123.42 23.3067 124.02 24.0533 124.927 24.64C125.86 25.2 127.073 25.48 128.567 25.48C129.58 25.48 130.367 25.3867 130.927 25.2C131.487 25.0133 131.873 24.7467 132.087 24.4C132.3 24.0267 132.407 23.6133 132.407 23.16C132.407 22.6 132.233 22.1733 131.887 21.88C131.54 21.56 131.007 21.3067 130.287 21.12C129.567 20.9333 128.647 20.76 127.527 20.6C126.407 20.4133 125.327 20.1867 124.287 19.92C123.247 19.6533 122.327 19.3067 121.527 18.88C120.727 18.4267 120.087 17.8667 119.607 17.2C119.153 16.5067 118.927 15.6667 118.927 14.68C118.927 13.72 119.153 12.8667 119.607 12.12C120.087 11.3733 120.74 10.7467 121.567 10.24C122.42 9.73333 123.407 9.34667 124.527 9.08C125.673 8.81333 126.9 8.68 128.207 8.68C130.18 8.68 131.82 8.97333 133.127 9.56C134.433 10.12 135.407 10.92 136.047 11.96C136.713 12.9733 137.047 14.1467 137.047 15.48H132.447C132.233 14.4933 131.807 13.7867 131.167 13.36C130.527 12.9067 129.54 12.68 128.207 12.68C126.9 12.68 125.913 12.88 125.247 13.28C124.58 13.68 124.247 14.2267 124.247 14.92C124.247 15.48 124.447 15.92 124.847 16.24C125.273 16.5333 125.887 16.7733 126.687 16.96C127.513 17.1467 128.54 17.3467 129.767 17.56C130.807 17.7733 131.793 18.0133 132.727 18.28C133.687 18.5467 134.54 18.8933 135.287 19.32C136.033 19.72 136.62 20.2667 137.047 20.96C137.5 21.6267 137.727 22.48 137.727 23.52C137.727 24.8 137.353 25.88 136.607 26.76C135.887 27.64 134.847 28.32 133.487 28.8C132.127 29.2533 130.5 29.48 128.607 29.48C126.927 29.48 125.473 29.3067 124.247 28.96C123.047 28.5867 122.047 28.12 121.247 27.56C120.447 26.9733 119.82 26.36 119.367 25.72C118.94 25.0533 118.647 24.4267 118.487 23.84C118.327 23.2533 118.273 22.7733 118.327 22.4ZM157.313 0.399999V4.96H151.273V0.399999H157.313ZM151.673 9.12H156.873V29H151.673V9.12ZM162.056 9.12H167.256V29H162.056V9.12ZM176.496 8.68C177.723 8.68 178.856 8.84 179.896 9.16C180.936 9.48 181.843 9.97333 182.616 10.64C183.39 11.3067 183.99 12.16 184.416 13.2C184.843 14.2133 185.056 15.4267 185.056 16.84V29H179.856V17.76C179.856 16.08 179.443 14.8533 178.616 14.08C177.816 13.28 176.496 12.88 174.656 12.88C173.27 12.88 172.016 13.1467 170.896 13.68C169.776 14.2133 168.87 14.8933 168.176 15.72C167.483 16.52 167.083 17.36 166.976 18.24L166.936 16.2C167.07 15.2667 167.376 14.36 167.856 13.48C168.336 12.6 168.976 11.8 169.776 11.08C170.603 10.3333 171.576 9.74667 172.696 9.32C173.816 8.89333 175.083 8.68 176.496 8.68ZM196.238 3.12H223.518V7.56H196.238V3.12ZM207.238 7H212.558V29H207.238V7ZM235.183 29.48C232.676 29.48 230.463 29.08 228.543 28.28C226.649 27.48 225.169 26.32 224.103 24.8C223.036 23.2533 222.503 21.36 222.503 19.12C222.503 16.88 223.036 14.9867 224.103 13.44C225.169 11.8667 226.649 10.68 228.543 9.88C230.463 9.08 232.676 8.68 235.183 8.68C237.689 8.68 239.876 9.08 241.743 9.88C243.636 10.68 245.116 11.8667 246.183 13.44C247.249 14.9867 247.783 16.88 247.783 19.12C247.783 21.36 247.249 23.2533 246.183 24.8C245.116 26.32 243.636 27.48 241.743 28.28C239.876 29.08 237.689 29.48 235.183 29.48ZM235.183 25.48C236.569 25.48 237.809 25.24 238.903 24.76C240.023 24.2533 240.903 23.5333 241.543 22.6C242.183 21.64 242.503 20.48 242.503 19.12C242.503 17.76 242.183 16.6 241.543 15.64C240.903 14.6533 240.036 13.9067 238.943 13.4C237.849 12.8933 236.596 12.64 235.183 12.64C233.796 12.64 232.543 12.8933 231.423 13.4C230.303 13.9067 229.409 14.64 228.743 15.6C228.103 16.56 227.783 17.7333 227.783 19.12C227.783 20.48 228.103 21.64 228.743 22.6C229.383 23.5333 230.263 24.2533 231.383 24.76C232.503 25.24 233.769 25.48 235.183 25.48ZM276.765 25.4L275.125 25.36L281.605 9.12H287.325L278.565 29H273.685L267.285 12.96H269.045L262.445 29H257.565L249.045 9.12H254.765L261.005 25.4H259.365L265.205 9.12H271.165L276.765 25.4ZM290.377 9.12H295.577V29H290.377V9.12ZM304.817 8.68C306.043 8.68 307.177 8.84 308.217 9.16C309.257 9.48 310.163 9.97333 310.937 10.64C311.71 11.3067 312.31 12.16 312.737 13.2C313.163 14.2133 313.377 15.4267 313.377 16.84V29H308.177V17.76C308.177 16.08 307.763 14.8533 306.937 14.08C306.137 13.28 304.817 12.88 302.977 12.88C301.59 12.88 300.337 13.1467 299.217 13.68C298.097 14.2133 297.19 14.8933 296.497 15.72C295.803 16.52 295.403 17.36 295.297 18.24L295.257 16.2C295.39 15.2667 295.697 14.36 296.177 13.48C296.657 12.6 297.297 11.8 298.097 11.08C298.923 10.3333 299.897 9.74667 301.017 9.32C302.137 8.89333 303.403 8.68 304.817 8.68Z" fill="#008080"/>
</svg>
